<svg id="evXhrPJezaY1" xmlns="http://www.w3.org/2000/svg" xmlns:xlink="http://www.w3.org/1999/xlink" viewBox="0 0 100 100" shape-rendering="geometricPrecision" text-rendering="geometricPrecision">
<style><![CDATA[
#evXhrPJezaY2_to {animation: evXhrPJezaY2_to__to 2500ms linear infinite normal forwards}@keyframes evXhrPJezaY2_to__to { 0% {transform: translate(50.004679px,49.049997px)} 20% {transform: translate(55.184679px,49.049997px)} 40% {transform: translate(50.004679px,49.049997px)} 60% {transform: translate(44.814679px,49.049997px)} 80% {transform: translate(50.004679px,49.049997px)} 100% {transform: translate(55.184679px,49.049997px)}}
]]></style>
<g id="evXhrPJezaY2_to" transform="translate(50.004679,49.049997)"><g transform="translate(-49.692309,-49.049997)"><g transform="translate(0 18)"><path d="M53.2,30.3c.4-1.3.6-2.7.6-4.2c0-1.2-.1-2.3-.4-3.4-1.5-6-7-10.5-13.5-10.5-5.3,0-9.9,3-12.3,7.4-.9-.3-1.8-.4-2.8-.4-5.1,0-9.3,4.1-9.3,9.3c0,.6.1,1.3.2,1.9-4.7.7-8.3,4.8-8.3,9.7c0,5.4,4.4,9.8,9.8,9.8h34.2c3.8,0,7.1-2.2,8.8-5.4.7-1.3,1.1-2.9,1.1-4.5.1-4.8-3.5-8.9-8.1-9.7Z" transform="translate(-2.52237 0)" fill="#fff"/><g><path d="M84.9,28.9c.4-1.1.6-2.3.6-3.5c0-1-.1-1.9-.4-2.8-1.3-5-6.1-8.7-11.8-8.7-4.6,0-8.7,2.5-10.7,6.1-.8-.2-1.6-.4-2.4-.4-4.5,0-8.1,3.4-8.1,7.6c0,.5.1,1,.2,1.5-4.1.6-7.2,4-7.2,8c0,4.5,3.8,8.1,8.6,8.1h29.8c3.3,0,6.2-1.8,7.7-4.4.6-1.1.9-2.3.9-3.7-.1-3.8-3.2-7.1-7.2-7.8Z" transform="translate(2.40701 0)" fill="#72dcf0"/></g></g></g></g></svg>
